<svg xmlns="http://www.w3.org/2000/svg" viewBox="0 0 680 500" role="img" aria-label="Placement decision flow: labels with no author offset go to the pool; labels with an offset are kept if collision-free or pooled if not; the pool is placed greedily, most-constrained first then a refinement pass on the three worst; kept labels and pool results combine into the final layout" font-family="Arial, Helvetica, sans-serif">
  <defs>
    <marker id="tw-arrow2" markerWidth="10" markerHeight="10" refX="7" refY="3" orient="auto">
      <path d="M0,0 L7,3 L0,6 z" fill="#626a6e"/>
    </marker>
  </defs>
  <rect width="680" height="500" fill="#ffffff"/>
  <g stroke="#626a6e" stroke-width="1.8" fill="none">
    <line x1="150" y1="132" x2="70" y2="132"/>
    <line x1="140" y1="262" x2="70" y2="262"/>
    <line x1="70"  y1="132" x2="70" y2="378"/>
    <line x1="70"  y1="378" x2="90" y2="378" marker-end="url(#tw-arrow2)"/>
  </g>
  <g stroke="#626a6e" stroke-width="1.8" fill="none" marker-end="url(#tw-arrow2)">
    <line x1="250" y1="60"  x2="250" y2="80"/>
    <line x1="250" y1="182" x2="250" y2="208"/>
    <line x1="360" y1="262" x2="428" y2="262"/>
    <polyline points="250,422 250,460 318,460"/>
    <polyline points="520,288 520,460 482,460"/>
  </g>
  <g font-size="12" fill="#505a5f" font-weight="bold">
    <text x="108" y="125" text-anchor="middle">No</text>
    <text x="103" y="255" text-anchor="middle">No</text>
    <text x="264" y="200">Yes</text>
    <text x="378" y="255">Yes</text>
  </g>
  <rect x="170" y="20" width="160" height="40" rx="20" fill="#1d70b8"/>
  <text x="250" y="45" text-anchor="middle" font-size="14" font-weight="bold" fill="#ffffff">All labels</text>
  <polygon points="250,80 352,132 250,184 148,132" fill="#fff7e6" stroke="#f47738" stroke-width="1.6"/>
  <text x="250" y="127" text-anchor="middle" font-size="13" fill="#0b0c0c">Has an author</text>
  <text x="250" y="144" text-anchor="middle" font-size="13" fill="#0b0c0c">label offset?</text>
  <polygon points="250,208 362,262 250,316 138,262" fill="#fff7e6" stroke="#f47738" stroke-width="1.6"/>
  <text x="250" y="257" text-anchor="middle" font-size="13" fill="#0b0c0c">Is that offset</text>
  <text x="250" y="274" text-anchor="middle" font-size="13" fill="#0b0c0c">collision-free?</text>
  <rect x="428" y="236" width="184" height="52" rx="6" fill="#e8f5ec" stroke="#00703c" stroke-width="1.6"/>
  <text x="520" y="258" text-anchor="middle" font-size="13" font-weight="bold" fill="#0b0c0c">Kept</text>
  <text x="520" y="276" text-anchor="middle" font-size="12" fill="#505a5f">frozen as a fixed obstacle</text>
  <rect x="90" y="334" width="320" height="88" rx="6" fill="#f3f2f1" stroke="#b1b4b6" stroke-width="1.6"/>
  <text x="250" y="358" text-anchor="middle" font-size="13" font-weight="bold" fill="#0b0c0c">Pool</text>
  <text x="250" y="377" text-anchor="middle" font-size="12" fill="#505a5f">Untuned labels + collided manual labels</text>
  <text x="250" y="396" text-anchor="middle" font-size="12" fill="#505a5f">Placed by the greedy engine: most-constrained</text>
  <text x="250" y="413" text-anchor="middle" font-size="12" fill="#505a5f">first, then a refinement pass on the 3 worst</text>
  <rect x="320" y="438" width="162" height="44" rx="22" fill="#1d70b8"/>
  <text x="401" y="464" text-anchor="middle" font-size="14" font-weight="bold" fill="#ffffff">Final layout</text>
</svg>
