<svg xmlns="http://www.w3.org/2000/svg" viewBox="0 0 720 584" role="img" aria-label="The six-step tidy pipeline, from wardley-beta source text through parse, project, build obstacles, place, invert and rewrite, to tidied source text" font-family="Arial, Helvetica, sans-serif">
  <defs>
    <marker id="tw-arrow" markerWidth="10" markerHeight="10" refX="7" refY="3" orient="auto">
      <path d="M0,0 L7,3 L0,6 z" fill="#626a6e"/>
    </marker>
  </defs>
  <rect width="720" height="584" fill="#ffffff"/>
  <g stroke="#626a6e" stroke-width="1.8" marker-end="url(#tw-arrow)">
    <line x1="360" y1="70"  x2="360" y2="90"/>
    <line x1="360" y1="140" x2="360" y2="160"/>
    <line x1="360" y1="210" x2="360" y2="230"/>
    <line x1="360" y1="280" x2="360" y2="300"/>
    <line x1="360" y1="350" x2="360" y2="370"/>
    <line x1="360" y1="420" x2="360" y2="440"/>
    <line x1="360" y1="490" x2="360" y2="510"/>
  </g>
  <rect x="200" y="24" width="320" height="46" rx="23" fill="#1d70b8"/>
  <text x="360" y="52" text-anchor="middle" font-size="15" font-weight="bold" fill="#ffffff">wardley-beta source text</text>
  <g>
    <rect x="200" y="94" width="320" height="46" rx="6" fill="#ffffff" stroke="#b1b4b6" stroke-width="1.5"/>
    <circle cx="200" cy="117" r="15" fill="#1d70b8"/>
    <text x="200" y="122" text-anchor="middle" font-size="14" font-weight="bold" fill="#ffffff">1</text>
    <text x="372" y="122" text-anchor="middle" font-size="15" fill="#0b0c0c">Line-oriented parse</text>
    <rect x="200" y="164" width="320" height="46" rx="6" fill="#ffffff" stroke="#b1b4b6" stroke-width="1.5"/>
    <circle cx="200" cy="187" r="15" fill="#1d70b8"/>
    <text x="200" y="192" text-anchor="middle" font-size="14" font-weight="bold" fill="#ffffff">2</text>
    <text x="372" y="192" text-anchor="middle" font-size="15" fill="#0b0c0c">Project to pixel coordinates</text>
    <rect x="200" y="234" width="320" height="46" rx="6" fill="#ffffff" stroke="#b1b4b6" stroke-width="1.5"/>
    <circle cx="200" cy="257" r="15" fill="#1d70b8"/>
    <text x="200" y="262" text-anchor="middle" font-size="14" font-weight="bold" fill="#ffffff">3</text>
    <text x="372" y="262" text-anchor="middle" font-size="15" fill="#0b0c0c">Build label boxes and obstacles</text>
    <rect x="200" y="304" width="320" height="46" rx="6" fill="#ffffff" stroke="#b1b4b6" stroke-width="1.5"/>
    <circle cx="200" cy="327" r="15" fill="#1d70b8"/>
    <text x="200" y="332" text-anchor="middle" font-size="14" font-weight="bold" fill="#ffffff">4</text>
    <text x="372" y="332" text-anchor="middle" font-size="15" fill="#0b0c0c">Run the placement engine</text>
    <rect x="200" y="374" width="320" height="46" rx="6" fill="#ffffff" stroke="#b1b4b6" stroke-width="1.5"/>
    <circle cx="200" cy="397" r="15" fill="#1d70b8"/>
    <text x="200" y="402" text-anchor="middle" font-size="14" font-weight="bold" fill="#ffffff">5</text>
    <text x="372" y="402" text-anchor="middle" font-size="15" fill="#0b0c0c">Invert each rect to a label offset</text>
    <rect x="200" y="444" width="320" height="46" rx="6" fill="#ffffff" stroke="#b1b4b6" stroke-width="1.5"/>
    <circle cx="200" cy="467" r="15" fill="#1d70b8"/>
    <text x="200" y="472" text-anchor="middle" font-size="14" font-weight="bold" fill="#ffffff">6</text>
    <text x="372" y="472" text-anchor="middle" font-size="15" fill="#0b0c0c">Rewrite the component lines</text>
  </g>
  <rect x="200" y="514" width="320" height="46" rx="23" fill="#1d70b8"/>
  <text x="360" y="542" text-anchor="middle" font-size="15" font-weight="bold" fill="#ffffff">Tidied wardley-beta source text</text>
</svg>
